<?xml version="1.0" encoding="utf-8"?>
<!-- Generator: Adobe Illustrator 23.0.0, SVG Export Plug-In . SVG Version: 6.00 Build 0)  -->
<svg version="1.1" id="Layer_1" xmlns="http://www.w3.org/2000/svg" xmlns:xlink="http://www.w3.org/1999/xlink" x="0px" y="0px"
	 viewBox="0 0 128 128" style="enable-background:new 0 0 128 128;" xml:space="preserve">
<style type="text/css">
	.st0{fill:#ED2724;}
	.st1{fill:#FEF001;}
	.st2{fill:#FEEF01;}
	.st3{fill:#FEEE01;}
	.st4{fill:#FEED02;}
	.st5{fill:#FEEC02;}
	.st6{fill:#020202;}
	.st7{fill:#1C1D2E;}
	.st8{fill:#094CA0;}
	.st9{fill:url(#SVGID_1_);}
	.st10{fill:#8DC641;}
</style>
<g>
	<path class="st0" d="M109,88.8c0,0-0.3,0,0.5-0.8c0.9-0.8,8.4-7.3,10.5-13L110,77l-3.6-8.9c0,0-6.1,7.6-9.7,10.5
		c-3.6,2.9-1.4,4.3-1.4,4.3l1.7,1.8c0,0,0.7,0.9-0.5,1.3c-1.2,0.3-6.5,2.3-6.5,2.3s-3.2,1.9-1.6,4.9c1.5,3,1.5,3.6,1.5,3.6
		s0.9,1.2-0.9,2c-1.6,0.9-8.7,5.6-24.7,5.9c-16.1-0.2-24.1-5-25.8-5.9c-1.7-0.9-0.9-2-0.9-2s-0.1-0.5,1.5-3.6c1.5-3-1.6-4.9-1.6-4.9
		s-5.3-2-6.5-2.3c-1.2-0.3-0.5-1.3-0.5-1.3l1.7-1.8c0,0,2.1-1.4-1.4-4.3C27.2,75.7,21,68.1,21,68.1L17.5,77l-10-1.9
		c2.1,5.6,9.6,12.2,10.5,13c0.9,0.8,0.5,0.8,0.5,0.8s-0.7,0.9-3.7,5.6s5.9,9.7,7.8,10.4c1.9,0.7,1.1,1.5,1.1,1.5
		c-4.4,9,0.3,11.2,0.3,11.2c12.8,8.5,35.2,10.2,39.8,10.5l0,0c0,0,0.2,0,0.4,0c0.3,0,0.4,0,0.4,0l0,0c4.4-0.3,26.1-1.9,38.9-10.5
		c0,0,4.8-2.2,0.3-11.2c0,0-0.8-0.9,1.1-1.5c1.9-0.7,10.8-5.6,7.8-10.4C109.6,89.7,109,88.8,109,88.8z"/>
	<g>
		<path class="st1" d="M32.6,104.1c-0.5-0.3-0.4-0.6-0.2-1c0.6-0.9,1-1.8,1.6-2.7c0.7,0,0.9,0.4,1,1.1c0,0.7,0.1,1.4,0.3,2
			c0.3-0.5,0.6-1,0.9-1.5c0.2-0.3,0.3-0.3,0.7-0.2c0.3,0.2,0.3,0.3,0.2,0.7c-0.2,0.3-0.3,0.7-0.4,1c-0.3,0.5-0.5,1-0.9,1.5
			c-0.2,0.2-0.1,0.7-0.5,0.5c-0.3-0.1-0.7-0.3-0.8-0.7c-0.2-0.8-0.1-1.5-0.3-2.4c-0.3,0.5-0.5,0.9-0.8,1.4
			C33.2,103.9,33.1,104.2,32.6,104.1z"/>
		<path class="st1" d="M46.1,109.2c-0.2,0.2-0.1,0.6-0.5,0.5c-0.3-0.1-0.7-0.2-0.8-0.6c-0.2-0.7-0.4-1.5-0.6-2.2
			c-0.4,0.4-0.4,0.9-0.7,1.5c-0.1,0.3-0.1,0.7-0.7,0.5c-0.5-0.2-0.3-0.4-0.3-0.8c0-0.1,0.1-0.3,0.1-0.3c0.3-0.8,0.6-1.5,0.9-2.2
			c0.1-0.3,0.1-0.6,0.5-0.5c0.3,0.1,0.6,0.2,0.7,0.6c0.2,0.8,0.4,1.5,0.6,2.2c0.4-0.4,0.5-1,0.7-1.5c0.1-0.3,0.3-0.6,0.7-0.4
			s0.3,0.4,0.3,0.7C46.5,107.4,46.4,108.3,46.1,109.2z"/>
		<path class="st1" d="M94.5,101c0.1,0.6-0.3,0.8-0.8,0.7c-0.8-0.1-1.4,0.2-1.5,0.8c-0.2,0.7,0.2,1.3,0.8,1.6c0.6,0.3,1.2,0,1.6-0.5
			c0.2-0.2,0.3-0.3,0.1-0.5c-0.2-0.3-0.3-0.1-0.5,0c-0.3,0.1-0.4,0.4-0.7,0c-0.3-0.4,0.1-0.5,0.3-0.6c0.3-0.2,0.6-0.3,0.8-0.5
			c0.3-0.3,0.5-0.1,0.8,0.2c0.5,0.3,0.6,0.7,0.6,1.1c0,0.2-0.2,0.3-0.3,0.3c-0.5,0.4-0.9,0.9-1.5,1.2c-1.1,0.4-2.1,0.1-2.6-0.9
			c-0.5-1-0.3-2.1,0.8-2.8c0.2-0.1,0.3-0.3,0.6-0.3c0.5-0.2,1-0.3,1.5,0.1C94.3,101,94.4,101,94.5,101z"/>
		<path class="st1" d="M40.7,106.2c-0.6,1.2-1.4,1.4-2.7,0.7c-1.2-0.6-1.5-1.7-1-2.8c0.1-0.2,0.3-0.4,0.3-0.6c1-0.8,2-0.7,3,0
			c0.3,0.2,0.5,0.4,0.6,0.7c0.1,0.3,0.3,0.7-0.1,0.8c-0.3,0.1-0.6,0-0.8-0.4c-0.3-0.7-0.9-0.9-1.5-0.7c-0.5,0.2-1,1-0.9,1.6
			c0.2,0.7,0.7,0.9,1.3,1c0.3,0,0.5,0,0.6-0.3c0.1-0.3-0.2-0.3-0.3-0.4c-0.3-0.2-0.5-0.3-0.3-0.6s0.4-0.1,0.7,0
			c0.3,0.1,0.6,0.3,0.9,0.3C40.7,105.6,40.7,105.8,40.7,106.2z"/>
		<path class="st2" d="M63.5,110.6c0.3,0.3,0.3,0.1,0.3-0.1c0-0.4,0-0.9,0-1.4c0-0.3,0-0.6,0.4-0.6s0.5,0.3,0.5,0.6
			c0,0.9,0,1.8,0,2.6c0,0.3,0.2,0.6-0.3,0.7c-0.4,0.1-0.8,0.1-1-0.3c-0.3-0.6-0.8-1.2-1.3-2c-0.1,0.8-0.2,1.3-0.2,1.9
			c0,0.3-0.2,0.4-0.5,0.4s-0.4-0.2-0.4-0.5c0.1-1,0.1-2.1,0.2-3.2c0-0.3,0.1-0.4,0.3-0.4c0.3,0,0.5,0,0.8,0.3
			c0.3,0.5,0.6,0.9,0.9,1.4C63.5,110.3,63.5,110.4,63.5,110.6z"/>
		<path class="st2" d="M67.5,112.5c-1.1,0-1.7-0.3-2-1.3c-0.3-0.9-0.1-1.9,0.6-2.4c0.6-0.5,1.9-0.7,2.6-0.3c0.3,0.2,0.8,0.4,0.5,0.9
			c-0.3,0.3-0.7,0.3-1-0.1c-0.5-0.5-1.1-0.3-1.5,0.2c-0.4,0.5-0.3,1.5,0.2,2c0.5,0.4,1.1,0.3,1.6,0c0.2-0.1,0.2-0.2,0.2-0.3
			s-0.2-0.2-0.3-0.2c-0.3,0-0.7,0.2-0.7-0.3c0-0.5,0.5-0.3,0.8-0.3c1.1-0.2,1.1-0.2,1.3,0.9c0.1,0.5-0.1,0.8-0.5,0.9
			C68.6,112.4,68.1,112.6,67.5,112.5z"/>
		<path class="st1" d="M32.8,99.4c0.2,0.1,0.3,0.2,0.4,0.3c0.2,0.1,0.3,0.3,0.2,0.5c-0.2,0.3-0.3,0.3-0.5,0.2
			c-0.4-0.3-0.9-0.5-1.2-0.8c-0.3-0.2-0.5-0.2-0.7,0.2c-0.3,0.3,0.1,0.4,0.3,0.6c0.3,0.3,0.7,0.4,1.1,0.7c0.2,0.1,0.3,0.3,0.2,0.5
			c-0.2,0.2-0.3,0.3-0.5,0.1c-0.3-0.3-0.8-0.4-1.1-0.7c-0.3-0.3-0.5-0.3-0.8,0.1c-0.3,0.4-0.1,0.6,0.3,0.8c0.4,0.3,0.9,0.5,1.3,0.9
			c0.3,0.2,0.3,0.3,0.2,0.5c-0.2,0.3-0.3,0.2-0.5,0.1c-0.8-0.5-1.5-1-2.4-1.5c-0.3-0.2-0.3-0.4-0.1-0.6c0.6-0.9,1.2-1.7,1.7-2.5
			c0.2-0.3,0.4-0.3,0.7-0.1c0.3,0.2,0.5,0.3,0.8,0.5C32.2,99.1,32.5,99.2,32.8,99.4z"/>
		<path class="st2" d="M47.7,110.4c-0.3-0.3-1.2-0.1-0.9-0.9c0.3-0.9,0.6-1.8,0.9-2.6c0.1-0.4,0.3-0.5,0.8-0.4
			c0.7,0.2,1.4,0.3,2,0.5c0.2,0.1,0.5,0.1,0.4,0.4c-0.1,0.3-0.3,0.3-0.6,0.3c-0.4-0.1-0.9-0.3-1.3-0.3c-0.3-0.1-0.4,0-0.5,0.3
			c-0.1,0.3,0,0.4,0.3,0.5c0.4,0.1,0.9,0.3,1.3,0.3c0.3,0.1,0.3,0.2,0.3,0.4c-0.1,0.3-0.2,0.3-0.4,0.3c-0.4-0.1-0.8-0.2-1.1-0.3
			s-0.6-0.1-0.8,0.4c-0.2,0.5,0.2,0.6,0.5,0.7c0.4,0.1,0.9,0.2,1.3,0.3c0.2,0.1,0.4,0.1,0.4,0.4c-0.1,0.3-0.3,0.3-0.5,0.3
			C49,110.7,48.3,110.7,47.7,110.4z"/>
		<path class="st2" d="M91.8,105.8c-0.1,0.5-0.5,0.5-0.8,0.6c-0.7,0.3-1.5,0.7-2.1,1c-0.9-1-1.1-2.3-1.6-3.4
			c-0.2-0.3,0.2-0.4,0.3-0.5c0.7-0.3,1.4-0.6,2-0.9c0.3-0.1,0.5-0.2,0.6,0.2c0.2,0.3-0.2,0.4-0.3,0.5c-0.3,0.2-0.7,0.3-1.1,0.5
			c-0.3,0.1-0.6,0.2-0.3,0.6c0.2,0.4,0.5,0.3,0.8,0.2c0.3-0.2,0.7-0.3,1.1-0.5c0.3-0.1,0.3-0.1,0.5,0.2c0.1,0.3,0,0.3-0.2,0.5
			c-0.4,0.2-0.9,0.4-1.2,0.6c-0.4,0.2-0.3,0.4-0.2,0.8c0.2,0.3,0.3,0.4,0.7,0.3c0.4-0.3,0.9-0.4,1.4-0.7
			C91.4,105.5,91.6,105.6,91.8,105.8z"/>
		<path class="st1" d="M54.1,108.4c-0.4-0.1-0.9-0.2-1.4-0.3c-0.3-0.1-0.4,0.1-0.5,0.3c-0.1,0.3,0.2,0.3,0.3,0.4
			c0.4,0.1,0.8,0.2,1.2,0.3c0.2,0.1,0.5,0.1,0.4,0.4c-0.1,0.3-0.3,0.3-0.6,0.3c-0.3-0.1-0.7-0.1-1-0.2c-0.4-0.2-0.6,0-0.7,0.4
			c-0.1,0.5,0.2,0.6,0.5,0.7c0.4,0.1,0.9,0.2,1.4,0.3c0.2,0,0.4,0.1,0.4,0.3c0,0.3-0.2,0.4-0.5,0.3c-0.9-0.2-1.7-0.3-2.6-0.5
			c-0.3-0.1-0.3-0.3-0.3-0.5c0.3-1,0.4-2,0.7-3.1c0.1-0.3,0.3-0.4,0.5-0.3c0.7,0.2,1.5,0.3,2.1,0.4c0.3,0.1,0.4,0.1,0.4,0.4
			C54.6,108.5,54.4,108.4,54.1,108.4z"/>
		<path class="st2" d="M73.4,111.8c-0.7,0-1.3-0.4-1.6-1.2c-0.3-0.9-0.2-1.8,0.4-2.4c0.6-0.5,1.6-0.7,2.3-0.3
			c0.3,0.2,0.8,0.4,0.6,0.7c-0.2,0.3-0.6,0.4-1,0.1c-0.5-0.4-1-0.2-1.4,0.3c-0.3,0.5-0.1,1.6,0.4,2c0.5,0.3,0.9,0.2,1.4-0.3
			c0.1-0.1,0.1-0.2,0.2-0.3c0.2-0.3,0.5-0.3,0.8-0.2c0.3,0.1,0.2,0.3,0.1,0.6C75.3,111.4,74.5,111.8,73.4,111.8z"/>
		<path class="st3" d="M81.1,106.1c0.1,0,0.1,0.3,0.2,0.4c0.3,0.7,0.4,1.4,0.6,2c0.2,0.6,0.4,0.7,0.9,0.4c0.3-0.2,0.6-0.3,0.9-0.3
			c0.3-0.1,0.4-0.1,0.5,0.2c0.1,0.3,0,0.4-0.3,0.5c-0.8,0.3-1.5,0.4-2.2,0.7c-0.3,0.2-0.5,0-0.6-0.3c-0.3-0.9-0.5-1.9-0.9-2.8
			C80.3,106.2,80.5,106.2,81.1,106.1z"/>
		<path class="st3" d="M88,107.3c0.2,0.4-0.3,0.5-0.4,0.7c-0.7,0.3-1.4,0.4-2,0.7c-0.3,0.2-0.6,0.1-0.7-0.3c-0.3-0.9-0.7-1.9-1-2.8
			c-0.2-0.3-0.1-0.6,0.3-0.7c0.4-0.2,0.5,0.1,0.6,0.3c0.3,0.6,0.5,1.3,0.7,1.9c0.2,0.6,0.4,0.6,1,0.4
			C86.9,107.5,87.3,106.9,88,107.3z"/>
		<path class="st4" d="M42.2,107c-0.2,0.3-0.3,0.6-0.4,0.9c-0.1,0.3-0.3,0.4-0.6,0.3c-0.3-0.1-0.5-0.3-0.3-0.6
			c0.1-0.3,0.2-0.6,0.3-0.9c0.3-0.7,0.6-1.3,0.9-2c0.1-0.3,0.3-0.5,0.6-0.3c0.4,0.2,0.4,0.3,0.3,0.7C42.6,105.7,42.4,106.4,42.2,107
			z"/>
		<path class="st2" d="M60.5,110.3c0,0.6-0.1,1.2-0.1,1.8c0,0.3-0.1,0.5-0.5,0.4c-0.3-0.1-0.5-0.1-0.5-0.5c0.1-1,0.2-2,0.3-3.1
			c0-0.3,0.2-0.5,0.5-0.4c0.4,0,0.4,0.3,0.4,0.5C60.5,109.4,60.5,109.8,60.5,110.3L60.5,110.3z"/>
		<path class="st2" d="M95.9,101.7c-0.3-0.5-0.5-1-0.9-1.5c-0.2-0.3-0.2-0.5,0.2-0.7c0.6-0.3,1.3-0.8,1.9-1.2c0.3-0.2,0.4-0.3,0.7,0
			c0.3,0.4-0.2,0.5-0.3,0.6c-0.3,0.3-0.7,0.5-1,0.7c-0.2,0.2-0.3,0.3-0.2,0.5c0.2,0.3,0.3,0.3,0.6,0.2c0.3-0.3,0.7-0.4,1-0.7
			c0.3-0.2,0.4-0.3,0.6,0.1c0.2,0.3,0,0.4-0.2,0.5c-0.3,0.3-0.7,0.4-1,0.7c-0.4,0.2-0.4,0.4-0.2,0.8c0.3,0.3,0.4,0.3,0.8,0.1
			c0.4-0.3,0.8-0.5,1.2-0.9c0.3-0.2,0.4-0.3,0.7,0c0.3,0.3,0,0.4-0.3,0.6c-0.8,0.5-1.6,1.1-2.4,1.6
			C96.2,103.2,96.1,102.3,95.9,101.7z"/>
	</g>
	<path class="st2" d="M58.8,109.2c-0.2-0.8-0.8-0.9-1.4-0.9c-0.5-0.1-0.9-0.1-1.4-0.2c-0.4-0.2-0.6,0.1-0.7,0.5
		c-0.1,0.9-0.3,1.8-0.3,2.6c-0.1,0.3-0.2,0.7,0.3,0.8c0.6,0.1,0.5-0.3,0.6-0.7c0.1-0.3-0.1-0.8,0.3-0.9c0.4-0.1,0.6,0.3,0.9,0.7
		c0.1,0.2,0.2,0.3,0.3,0.5c0.3,0.7,0.7,0.8,1.4,0.6c-0.3-0.7-0.6-1.2-1-1.8C58.5,110.3,58.8,109.8,58.8,109.2z M57,109.7
		c-0.3-0.1-0.9,0.2-0.8-0.5c0-0.4,0.3-0.5,0.6-0.4c0.3,0.1,0.9,0,1,0.5C57.8,109.8,57.4,109.7,57,109.7z"/>
	<path class="st1" d="M78.3,106.8c-1.4,0-2.2,0.8-2.2,2c0,1.4,0.7,2.1,2,2.1c1.4,0,2.2-0.9,2.2-2C80.3,107.7,79.5,106.8,78.3,106.8z
		 M78.1,110.3c-0.7,0-1.2-0.7-1.2-1.5c0-0.7,0.4-1.2,1.1-1.2c0.8-0.1,1.3,0.6,1.3,1.5C79.3,109.7,78.8,110.3,78.1,110.3z"/>
	<g>
		<path class="st2" d="M63.4,124.1c-0.6,0-0.9-0.3-1-0.9c0-0.4-0.2-0.9-0.3-1.2c-0.1,0-0.1-0.3-0.2-0.1c-0.2,0.3,0,0.8-0.1,1.1
			c0,0.2,0,0.4,0,0.6c0,0.3-0.1,0.4-0.3,0.4c-0.3,0-0.5,0-0.5-0.4c0.1-1.1,0.1-2.1,0.2-3.2c0-0.4,0.3-0.3,0.6-0.3
			c0.3,0,0.9-0.2,0.9,0.4c0.1,0.6,0.3,1.2,0.4,2c0.4-0.6,0.5-1.1,0.6-1.7c0.1-0.8,0.6-0.7,1.1-0.7c0.6,0,0.4,0.4,0.4,0.8
			c0,0.8,0,1.6,0.1,2.4c0.1,0.5-0.1,0.9-0.7,0.9c-0.4-0.1-0.3-0.4-0.3-0.7c0-0.4-0.1-0.9-0.1-1.3c0-0.1,0-0.3,0-0.3
			c0,0.2,0,0.3,0,0.4c0,0.1-0.1,0.3-0.2,0.3c-0.3,0.4-0.2,1.1-0.5,1.5C63.4,124.1,63.4,124.1,63.4,124.1z"/>
		<path class="st3" d="M55.1,120.8c0.6,0.1,0.5-0.4,0.6-0.7c0.1-0.3-0.1-0.8,0.6-0.7c0.6,0.1,0.3,0.5,0.3,0.9
			c-0.1,0.9-0.3,1.8-0.3,2.7c-0.1,0.4-0.2,0.5-0.6,0.4c-0.4-0.1-0.3-0.3-0.3-0.6c0-0.4,0.6-1-0.3-1.3c-1-0.3-1-0.3-1.3,0.8
			c-0.1,0.3,0,0.8-0.6,0.7c-0.6-0.1-0.3-0.5-0.3-0.9c0.2-0.9,0.3-1.8,0.5-2.6c0.1-0.3,0.2-0.6,0.6-0.4c0.4,0.1,0.3,0.3,0.3,0.7
			C54,120.7,54.1,120.7,55.1,120.8z"/>
		<path class="st2" d="M71.6,120.8c0.3,0.2,1-0.4,1.1,0.3c0.1,0.6-0.7,0.3-1,0.4c-0.1,0.1-0.3,0.1-0.4,0.1c-0.3,0-0.6,0.1-0.5,0.5
			s0.2,0.7,0.7,0.6c0.4-0.1,0.9-0.2,1.4-0.2c0.3,0,0.4-0.1,0.5,0.3c0.1,0.3-0.2,0.4-0.4,0.4c-0.1,0-0.1,0-0.2,0
			c-2.7,0.5-2.7,0.5-3-2.3c0-0.3,0-0.4-0.1-0.7c-0.2-0.4,0-0.7,0.5-0.8c0.7-0.1,1.4-0.2,2-0.3c0.3-0.1,0.4-0.1,0.5,0.3
			c0,0.3-0.1,0.4-0.4,0.4c-0.3,0.1-0.6,0.1-0.9,0.2c-0.3,0.1-0.9-0.1-0.7,0.5C70.9,121.2,71.2,120.8,71.6,120.8
			C71.6,120.7,71.6,120.7,71.6,120.8z"/>
		<path class="st1" d="M59.4,123.9c-0.7-0.1-1.3-0.2-2-0.3c-0.4,0-0.6-0.3-0.5-0.7c0.2-1,0.3-2,0.3-3c0-0.3,0.2-0.4,0.4-0.4
			c0.8,0.1,1.5,0.2,2.3,0.2c0.3,0,0.3,0.2,0.3,0.4s-0.2,0.3-0.4,0.3c-0.4,0-0.9-0.1-1.3-0.1c-0.3,0-0.5,0-0.5,0.3
			c0,0.3,0.2,0.4,0.4,0.4c0.3,0,0.8,0.1,1.1,0.1c0.3,0,0.4,0.1,0.4,0.4c0,0.3-0.3,0.3-0.4,0.3c-0.4,0-0.8,0-1.2-0.1
			c-0.4-0.1-0.5,0.1-0.5,0.4c0,0.3,0,0.6,0.4,0.7c0.4,0,0.9,0,1.4,0.1c0.2,0,0.4,0,0.5,0.3c0,0.3,0,0.5-0.3,0.5
			C59.8,124,59.6,124.1,59.4,123.9z"/>
		<path class="st2" d="M50.6,118.2c0.7,0.1,1.4,0.3,1.7,0.9c0.1,0.2,0.3,0.4,0,0.6c-0.3,0.2-0.6,0.2-0.8-0.1
			c-0.3-0.5-0.7-0.9-1.2-0.6c-0.7,0.3-0.8,0.9-0.9,1.5c-0.1,0.4,0.2,0.7,0.5,0.9c0.3,0.2,0.8,0.3,1-0.1c0.3-0.4,0.8-0.3,0.9,0
			c0.3,0.3-0.2,0.6-0.5,0.8c-0.6,0.4-1.6,0.3-2.3-0.3c-0.6-0.5-0.8-1.4-0.4-2.2C49,118.7,49.6,118.3,50.6,118.2z"/>
		<path class="st5" d="M77.9,117.9c0.3-0.1,0.4,0.2,0.4,0.4c0.3,0.9,0.6,2,0.9,2.9c0.1,0.3,0.1,0.5-0.3,0.6
			c-0.3,0.1-0.5,0.2-0.7-0.3c-0.3-1-0.5-2-0.9-3C77.3,118.1,77.6,118,77.9,117.9z"/>
		<path class="st2" d="M77.4,121.5c-0.2-0.2-0.3-0.4-0.6-0.5c-0.3-0.2-0.4-0.3-0.1-0.7c0.3-0.3,0.3-0.8,0.1-1.2
			c-0.2-0.4-0.5-0.6-1-0.6c-0.7,0.2-1.4,0.3-2,0.5c-0.3,0-0.3,0.2-0.3,0.4c0.2,1.1,0.4,2.1,0.6,3.2c0,0.2,0.2,0.3,0.3,0.3
			c0.3-0.1,0.5,0,0.6-0.3c0.1-0.3-0.1-0.5-0.1-0.8c-0.1-0.3-0.3-0.6,0-0.8c0.3-0.2,0.6,0,0.9,0.2c0.3,0.3,0.6,0.6,0.9,0.9
			c0.4,0.3,0.9,0.1,1-0.2C78,121.9,77.5,121.7,77.4,121.5z M75,120.4c-0.5,0.2-0.5-0.3-0.5-0.6c0-0.7,0.7-0.2,0.9-0.5
			c0.4,0,0.7,0.1,0.7,0.4C75.9,120.3,75.3,120.2,75,120.4z"/>
		<path class="st2" d="M68.9,120.3c-0.3-0.6-0.9-0.5-1.7-0.5c0,0-0.2,0.1-0.4,0c-0.8,0-1.2,0.3-1,1.1s0.2,1.6,0.2,2.5
			c0,0.4,0.2,0.5,0.6,0.5s0.4-0.3,0.3-0.6c-0.2-0.7,0.1-1,0.9-1C68.9,122.2,69.4,121.3,68.9,120.3z M67.1,121.5
			c-0.5,0.2-0.5-0.3-0.5-0.6c0-0.7,0.7-0.2,0.9-0.5c0.4,0,0.7,0.1,0.7,0.4C68.1,121.4,67.5,121.3,67.1,121.5z"/>
	</g>
	<g>
		<path class="st6" d="M51.5,97.5c-0.8-0.4-1.4-0.3-1.9,0.5c-0.3,0.5-0.6,1-0.9,1.5c0,0,0,0-0.1,0c0,0,0-0.1,0.1-0.1
			c-0.4-0.8,0-1.7-0.2-2.6c0,0,0,0,0,0.1c-0.1-0.4-0.6-0.3-0.9-0.5c-0.6-0.3-0.9-0.1-1,0.5c-0.3,1-0.7,2.1-1.1,3.2
			c-0.2,0.4,0,0.6,0.3,0.7c0.3,0.2,0.5,0.2,0.7-0.3c0.2-0.6,0.4-1.1,0.6-1.7c0.1-0.2,0.2-0.3,0.3-0.3c0,0.1,0,0.3,0,0.3v-0.1
			c0,0.2,0,0.3,0,0.4c0.1,0.8-0.1,1.5,0.1,2.1c0.8,0.4,1.4,0.3,1.7-0.6c0.2-0.5,0.6-1,0.9-1.5c0,0.8-0.2,1.5-0.3,2.2
			c-0.2,0.5,0.1,0.5,0.4,0.6c0.3,0.1,0.5,0.2,0.6-0.3c0.3-1.3,0.6-2.5,0.9-3.8C51.7,97.9,51.8,97.7,51.5,97.5z"/>
		<path class="st6" d="M85.3,95.1c-0.2-0.3-0.2-0.7-0.8-0.4c-0.6,0.3-0.4,0.5-0.3,0.9c0.4,1,0.4,1-0.6,1.5c-0.7,0.3-0.9,0.2-1.1-0.5
			c0-0.3-0.1-0.4-0.2-0.6c-0.2-0.4-0.4-0.3-0.7-0.2c-0.3,0.1-0.5,0.2-0.3,0.6c0.4,1.2,0.9,2.4,1.3,3.6c0.1,0.2,0.1,0.4,0.4,0.3
			c0.3-0.2,1-0.2,0.6-1.1c-0.2-0.3-0.2-0.6-0.3-0.9c-0.1-0.2-0.1-0.3,0.2-0.4c1.2-0.7,1.5-0.6,2,0.7c0,0.1,0.1,0.1,0.1,0.2
			c0.1,0.5,0.4,0.4,0.8,0.3c0.3-0.1,0.6-0.3,0.3-0.7C86.2,97.3,85.8,96.2,85.3,95.1z"/>
		<path class="st6" d="M43.1,95.7c-0.5,0.6-1.1,1.2-1.7,1.8c-0.1,0-0.2-0.1-0.2-0.1c0-0.8,0.1-1.6,0.2-2.4c0.1-0.8-0.2-1.3-1-1.3
			c-0.1,1.5-0.2,3-0.3,4.4c0,0.4,0.2,0.6,0.5,0.7c0.3,0.1,0.7,0.4,1,0c1-1.1,2-2.2,3.2-3.3C44,95.1,43.6,95,43.1,95.7z"/>
		<path class="st6" d="M69.2,100.4c-0.8-0.5-0.9-2.1-2.4-1.5c0.1,0.2,0.2,0.3,0.2,0.4c0.9,1.1,2,2,1.9,3.7c-0.1,0.4,0.4,0.3,0.7,0.3
			c0.5,0.1,0.5-0.3,0.4-0.5c-0.3-1.1,0.1-2,0.6-3c0.3-0.3,0.4-0.9,0.7-1.3C69.7,98.2,69.8,99.7,69.2,100.4z"/>
		<path class="st6" d="M80.2,96.3c-0.9,0.3-2,0.6-3,0.9c-0.6,0.2-0.3,0.5-0.2,0.8c0.1,0.3,0.4,0.1,0.6,0c0.7-0.3,0.9,0,1,0.6
			c0.2,0.9,0.5,1.6,0.7,2.5c0.2,0.5,0.4,0.4,0.8,0.3c0.3-0.1,0.5-0.2,0.3-0.6c-0.3-0.8-0.5-1.6-0.8-2.5c-0.2-0.5-0.2-0.9,0.5-0.9
			c0.2-0.1,0.6,0,0.6-0.4C80.7,96.5,80.7,96.2,80.2,96.3z"/>
		<path class="st6" d="M59.9,102.7c-0.4-0.1-0.9-0.1-1.3-0.1c-0.5,0-0.7-0.2-0.6-0.7c0.2-0.9,0.3-1.9,0.3-2.8
			c0.1-0.3-0.1-0.5-0.4-0.5c-0.3,0-0.5-0.1-0.6,0.3c-0.1,1.2-0.3,2.5-0.4,3.8c-0.1,0.3,0.1,0.5,0.4,0.5c0.8,0,1.5,0.1,2.2,0.2
			c0.2,0,0.3,0.1,0.4,0.2c0.3-0.1,0.7,0.2,0.7-0.4C60.7,102.6,60.2,102.7,59.9,102.7z"/>
		<path class="st6" d="M66.3,100.9c0-0.4,0-0.9,0-1.4s0-0.7-0.6-0.7c-0.6,0-0.5,0.3-0.5,0.7c0,0.9,0.1,1.6,0.1,2.4
			c0,0.3,0,0.8-0.4,0.9c-0.4,0.1-0.8-0.1-0.9-0.5c0-0.2-0.1-0.3-0.3-0.3c-0.3,0.1-0.6-0.1-0.7,0.3c-0.1,0.3,0.1,0.8,0.4,1
			c0.7,0.5,1.5,0.4,2.1,0.2c0.7-0.3,0.9-0.9,0.9-1.5C66.4,101.6,66.4,101.2,66.3,100.9C66.4,100.9,66.3,100.9,66.3,100.9z"/>
		<path class="st6" d="M88.8,97.6c-0.6-1.1-1.1-2.3-1.7-3.4C87,94,87,93.9,86.7,93.9c-0.4-0.1-0.8,0.4-0.5,0.9
			c0.5,1.2,1,2.3,1.5,3.4c0.2,0.5,0.5,0.2,0.8,0.1C88.8,98.1,89,98,88.8,97.6z"/>
		<path class="st6" d="M45.7,95.8c-0.4-0.2-0.6-0.2-0.8,0.3c-0.4,1.1-0.9,2.2-1.3,3.3c-0.2,0.5,0.2,0.9,0.6,0.9s0.4-0.3,0.5-0.4
			c0.4-1.1,0.8-2.2,1.2-3.3C46,96.2,46.2,96,45.7,95.8z"/>
		<path class="st6" d="M74.5,97.8c-1.6,0-2.6,0.9-2.6,2.4c0,1.6,0.9,2.5,2.4,2.5c1.6,0,2.7-0.9,2.6-2.3C77,98.8,76.1,97.8,74.5,97.8
			z M75.9,100.5c0,0.8-0.7,1.3-1.5,1.3c-0.9,0-1.5-0.8-1.5-1.8c0.1-0.9,0.7-1.4,1.5-1.4C75.4,98.7,76,99.5,75.9,100.5z"/>
		<path class="st6" d="M53.6,98.3c-0.9,1.3-1.7,2.6-2.6,3.8c0.7,0.3,1.2,0.4,1.6-0.3c0.2-0.4,2-0.1,2,0.3c0.1,0.9,0.6,0.9,1.4,0.9
			c-0.3-1.6-0.6-3.1-1-4.5C54.8,98,54,97.9,53.6,98.3z M54.3,100.9c-0.3,0.1-0.6,0-0.8-0.2c-0.3-0.3,0.1-0.4,0.2-0.6
			c0.2-0.3,0.2-0.5,0.5-0.7c0.1,0.3,0.2,0.5,0.2,0.8C54.4,100.5,54.7,100.8,54.3,100.9z"/>
	</g>
	<g>
		<path class="st7" d="M45.1,7.4C45.1,7.4,45.1,7.5,45.1,7.4c-0.3-0.5-0.1-0.9,0.5-1.2C45.8,6.1,46,6.1,46.1,6
			c0.3-0.2,1-0.2,0.8-0.6c-0.2-0.5-0.7,0.1-1,0.2l-0.1,0.1c0,0-0.1,0-0.1-0.1c-0.9,0.5-1.8,0.9-2.6,1.5l0,0c-0.9,0.6-2,1-2.6,1.9
			c-0.4-0.1-0.9,0.1-1.3-0.3c-0.7-0.7-1.7-0.5-2.1,0.1c0.7,0.2,1.5,0,2,0.4c0.1,0,0.1,0.1,0.1,0.1C39.3,9.5,39,9.6,39,9.8v0.1
			c0,0,0-0.1-0.1-0.1c-0.3,0.2-0.6,0.4-0.9,0.7c0.1,0,0.1,0.1,0.1,0.1l0,0c-0.1,0.1-0.1,0.1-0.2,0.2v-0.1c-0.4,0.3-0.8,0.4-1,0.8
			c-0.4,0.3-0.9,0.8-1.3,1.1c-0.2,0.1-0.4,0.3-0.3,0.5c0.2,0.3,0.4,0.1,0.6-0.1c0.4-0.4,0.9-0.5,1.4,0h0.1l0,0l0,0l0,0
			c0.1,0.3,0,0.5-0.3,0.7c-0.3,0.3-0.2,0.4,0.1,0.5c0,0,0,0,0-0.1c0.4,0.5,1,0.6,1.6,0.3c0.4-0.2,0.9-0.4,0.8-1
			c0.4-0.2,0.7,0.1,0.9,0.3c0.2,0.3,0.3,0.4,0.6,0.2c0.3-0.3,0-0.4-0.2-0.6c-0.5-0.6-1.1-1.2-1.6-1.8c-0.1-0.3-0.6-0.6-0.4-1
			c0.3-0.3,0.7-0.5,1.2-0.2v0.1h0.1c0.4,0.5,0.7,0.9,1.1,1.5c0.3,0.3,0.6,0.6,0.9,0.9c0.1,0.2,0.3,0.3,0.4,0.1
			c0.2-0.2,0.2-0.3,0-0.5c-0.3-0.3-0.6-0.7-0.9-1c-0.3-0.4-0.7-0.9-1-1.3c0,0,0,0,0,0.1c-0.3-0.3-0.5-0.7,0-1c0,0,0-0.1-0.1-0.1
			c0.5-0.3,1-0.5,1.5-0.9C42.5,8,42.7,8.1,43,8.3h0.1l0,0c-0.1,0-0.1,0-0.2-0.1C43,8.5,43,8.8,42.8,9c-0.2,0.1-0.3,0.2-0.3,0.3
			c-0.3,0.3-0.3,0.6,0,0.9v0.1c0.5,0.8,1,0.8,1.9,0c0.2-0.3,0.3-0.7,0-0.9c0-0.1,0-0.2-0.1-0.3l0,0c-0.4-0.3-0.3-0.9-0.7-1.1
			c0-0.1-0.1-0.1-0.1-0.1c-0.1-0.3,0.1-0.7,0.4-0.9c0.3,0.1,0.4,0.3,0.5,0.4c0.1,0,0.1,0.1,0.2,0.1c0.1,0.2,0.2,0.3,0.3,0.5
			c0.3,0.7,0.8,1.4,1.1,2c0.1,0.2,0.2,0.3,0.4,0.2c0.3-0.2,0.2-0.3,0.1-0.4C46.2,9,45.6,8.2,45.1,7.4z M40.3,13.3L40.3,13.3
			C40.3,13.3,40.2,13.3,40.3,13.3C40.2,13.3,40.3,13.3,40.3,13.3z M39.3,11.8L39.3,11.8L39.3,11.8L39.3,11.8z M39,11.9
			c0.3,0.3,0.3,0.5,0.4,0.8c-0.1,0.1-0.1,0.2-0.2,0.3c-0.3,0.3-0.5,1.2-1.1,0.3c0,0,0,0-0.1-0.1c0.1-0.3-0.1-0.6-0.3-0.8v-0.1
			c-0.1-0.3,0-0.5-0.2-0.8c0.3,0,0.3-0.1,0.4-0.3c0.3,0.3,0.4,0.4,0.8,0.6C38.9,11.9,39,11.9,39,11.9z M43.6,9.6L43.6,9.6
			C43.6,9.6,43.6,9.6,43.6,9.6c0.1,0.6-0.2,0.8-0.6,0.6c0.1-0.1,0.1-0.2,0-0.3C43.3,9.9,43.5,9.7,43.6,9.6z"/>
		<path class="st7" d="M47.8,8.6c-0.2,0-0.3,0.1-0.3,0.4c-0.1,0.3,0.1,0.4,0.3,0.4s0.3-0.3,0.3-0.4C48.2,8.8,48,8.7,47.8,8.6z"/>
		<path class="st7" d="M46.6,6.5c-0.2,0-0.3,0.1-0.3,0.3c0,0.2,0.2,0.3,0.3,0.3C46.6,7,47,7.1,47,6.8C46.9,6.7,46.8,6.5,46.6,6.5z"
			/>
		<path class="st7" d="M91.7,13.5c-0.1-0.1-0.2-0.1-0.3-0.2c0,0.1-0.1,0.2-0.2,0.2c0.1,0,0.1-0.1,0.2-0.3c-0.3-0.6-0.9-1.1-1.5-1.5
			c-0.1,0-0.1,0-0.2-0.1c0-0.1,0-0.1-0.1-0.2c-0.1-0.1-0.1-0.1-0.2-0.2c0,0.1-0.1,0.2-0.1,0.2v-0.1c-0.3-0.2-0.3-0.6-0.7-0.7
			c-0.3-0.2-0.7-0.4-1-0.7l0,0c-0.1-0.2-0.3-0.1-0.4-0.3c0,0,0,0-0.1,0c0,0,0-0.1,0.1-0.1c-0.4-0.3-0.9-0.7-1.5-1V8.6
			c-0.9-0.7-1.7-1.3-2.7-1.8c-1.5-0.9-3-1.7-4.5-2.2l0,0c-0.7-0.1-0.9-0.4-0.9-1s-0.2-1.1-0.5-1.5l0,0L77.3,2c0-0.1-0.1-0.2-0.2-0.2
			c-0.2-0.3-0.6-0.6-0.8-0.4c-0.3,0.3,0.3,0.4,0.5,0.7c0,0.1,0.1,0.2,0.1,0.2c0,0.1,0,0.2,0.1,0.3c0.1,0.1,0.1,0.2,0.1,0.3
			c0,0.1,0,0.1,0.1,0.2v0.1c0,0,0,0,0,0.1C77,3.2,77,2.9,76.8,2.9c0,0.1,0,0.2,0,0.3c0-0.1,0-0.1-0.1-0.2c-0.1-0.1-0.2-0.2-0.3-0.3
			c-0.2-0.2-0.3-0.5-0.5-0.3c-0.3,0.3,0.2,0.3,0.3,0.4c0.3,0.3,0.3,0.7-0.3,0.7c-1.5-0.6-3.2-0.9-4.8-1.1C71.1,2.3,71,2.3,71,2.2
			c-0.3,0-0.4-0.2-0.6,0.1c-0.2,0.3,0.1,0.4,0.3,0.5c0.1,0,0.3,0,0.3,0c0,0.1,0,0.1,0,0.2c0.5,0.3,1.2,0.1,1.6,0.6l0,0
			c-0.2,0.3-0.3,0.9-0.8,0.3c-0.3-0.3-0.6-0.2-0.9,0c-0.3-0.1-0.4,0.1-0.5,0.3c-0.5,0.6-0.6,1.1,0,1.6c0.3,0.6,0.9,0.5,1.4,0.7
			c0.2,0.3-0.3,0.8,0.3,0.9l-0.1-0.1c0,0.1,0.1,0.1,0.2,0.1c0.7-0.6,0.5-1.5,0.9-2.2l0,0c0.4-0.3,0.7-0.3,1.1-0.2l0,0V5
			c0.1,0,0.1,0.1,0.2,0.1c0.1,0.3,0.1,0.5,0.1,0.9c0,0,0.1,0,0.2,0c0,0,0,0,0,0.1c0,0-0.1-0.1-0.2-0.1c0-0.1-0.1-0.1-0.2,0
			c-0.3,0.1-0.4,0.3-0.6,0.3c-0.2,0.1-0.3,0.3-0.3,0.5c0.2,0.3,0.4,0.1,0.6,0c0.3-0.1,0.6-0.2,0.8-0.5c0.1,0,0.2-0.2,0.1-0.3
			c0-0.1,0-0.2,0-0.3c0,0.1,0.1,0.2,0.1,0.3c0.1-0.3,0.2-0.5,0-0.8c0,0.1,0,0.1-0.1,0.2c0-0.1,0-0.2,0-0.3c0-0.3-0.2-0.5-0.5-0.6
			c-0.3-0.3-1-0.1-1.2-0.6c0,0,0,0,0.1,0c0-0.1,0.1-0.2,0.1-0.3c0.3-0.3,0.7-0.1,1.1-0.1c0.1,0,0.1,0,0.2,0.1
			C75,3.9,75.2,4,75.6,3.9C75.6,4,75.8,4,75.8,4.2c0.1,0,0.2,0,0.3,0c0.1,0.1,0.2,0.1,0.3,0.2c0,0.1,0,0.2,0,0.3s0,0.4,0,0.6
			c0,0.1,0,0.1,0,0.2c-0.4,0.8-0.5,1.7-0.9,2.5c0,0.2-0.1,0.3,0.2,0.4c0.2,0.1,0.3,0.1,0.4-0.2c0.3-0.9,0.6-1.7,0.9-2.6
			c0,0,0,0-0.1,0c0.2-0.4,0.3-0.9,1-0.8c0-0.1,0-0.1-0.1-0.1c0,0,0,0,0.1,0c0.2,0,0.3,0,0.4,0c0.1,0.3,0.4,0.7,0.2,1.2l0,0l-0.1-0.1
			c-0.4,0.9,0.2,1.1,0.8,1.3l0.1,0.1c0,0.8-0.6,0.6-1,0.5c-0.2,0-0.4-0.4-0.7,0s0.3,0.3,0.3,0.6c0,0.3,0.1,0.7,0.3,0.9
			c0.2,0.2,0.4,0.5,0.6,0.3C79,9.5,78.8,9.2,78.6,9c-0.2-0.1-0.2-0.3-0.2-0.5c1-0.2,1.8-0.8,2-1.8c0.1-0.4,0.3-0.4,0.7-0.3
			c0.6,0.3,0.4,0.6,0.3,1c-0.2,0.3-0.4,0.8-0.6,1.2l0,0c-0.2,0.4-0.4,0.8-0.7,1.2c-0.1,0.2-0.3,0.3-0.1,0.5c0.3,0.1,0.3-0.1,0.5-0.2
			c0.3-0.2,0.4-0.6,0.6-0.9c0.3-0.5,0.5-1.1,0.8-1.6c0.3-0.3,0.5-0.7,1-0.3c0.9,0.6,1.7,1.1,2.6,1.6h0.1C85.5,9,85.5,9,85.5,9
			c0.3,0.3,0.7,0.6,0.9,0.9c0,0,0,0,0.1,0c0,0,0,0.1-0.1,0.1c-0.3,0.9-0.7,0.1-1.1,0.1h-0.1l0,0c-0.3-0.2-0.7-0.1-0.9-0.4
			C84,9,83.4,8.7,82.7,9c-0.8,0.3-1,0.9-0.8,1.7l0.1,0.1c0.1,0.2,0.1,0.3,0.2,0.4c0,0.3,0.2,0.4,0.4,0.3c0.3-0.1,0.2-0.3,0.1-0.5
			c-0.2-0.3-0.2-0.7-0.2-1h-0.1l0,0c0.9-0.8,1.1-0.7,1.4,0.4c0.1,0.3,0.3,0.4,0.5,0.3c0.3-0.2,0.5-0.2,0.8-0.2
			c0.2,0.2,0.3,0.4,0.5,0.8l0,0c-0.2,0.3-0.4,0.4-0.5,0.7H85c-0.3,0.3-0.7,0.6-0.6,1.1c0,0.1,0.2,0.2,0.3,0.2
			c0.4-0.2,0.6-0.6,0.8-0.9c0.2-0.3,0.4-0.5,0.7-0.8l0,0l0,0l0.1-0.1l0,0c0.2-0.4,0.7-0.6,0.8-1.1l0.1-0.1c0.5,0.1,0.8,0.5,1.3,0.7
			c0.3,0.3,0.5,0.6,0.8,0.9l0.1-0.1c0,0.1,0,0.1,0.1,0.1c0.1,0,0.1,0,0.1,0V12c0,0.1,0,0.1,0.1,0.2c-0.1,0-0.1-0.1-0.1-0.2
			c-0.1-0.1-0.1-0.1-0.3,0c-0.3,0.3-0.4,0.4-0.7,0.7c-0.2-0.1-0.3-0.1-0.4-0.2c-0.3-0.3-0.7-0.3-1.1,0c0-0.1-0.1,0-0.1,0
			c-0.6,0.4-0.4,0.9,0,1.4c0.3,0.3,0.6,0.5,1,0.3c0.4,0.1,0.6-0.5,1-0.3c0.3,0.2,0.5,0.3,0.5,0.8l0,0c-0.1,0.2-0.1,0.3-0.1,0.4l0,0
			h-0.1c-0.3,0.1-0.3,0.3-0.5,0.5c-0.3,0.2-0.8,0.3-0.5,0.7c0.2,0.3,0.5,0.1,0.7-0.2c0.3-0.2,0.6-0.5,0.9-0.9h0.1
			c0.3-0.3,0.6-0.4,0.8-0.9l0,0c0.2-0.2,0.3-0.3,0.4-0.4c0-0.1,0-0.1,0.1-0.2v0.1c0.1,0,0.3,0,0.3,0c0.3,0.2,0.5,0.3,0.7-0.1
			C92.2,13.6,91.8,13.7,91.7,13.5z M70.6,5.4c0.2-0.3,0.4-0.5,0.5-0.9c0.3,0,0.5,0.1,0.9,0.3c0.1,0.1,0.2,0.1,0.3,0.1
			c0,0.1,0.1,0.1,0.1,0.2C71.8,5.5,71.2,5.4,70.6,5.4z M72.7,3.7L72.7,3.7L72.7,3.7L72.7,3.7z M77.1,3.8C77.1,3.8,77,3.8,77.1,3.8
			C77,3.8,77.1,3.8,77.1,3.8L77.1,3.8z M79.2,6.7c0-0.2-0.1-0.3-0.2-0.3c0.1-0.2,0.1-0.3,0.1-0.5c0.3,0.1,0.4,0.1,0.4,0.4
			C79.6,6.6,79.4,6.7,79.2,6.7z M84.6,10.4C84.6,10.5,84.5,10.4,84.6,10.4C84.6,10.3,84.6,10.3,84.6,10.4L84.6,10.4z M87.2,13.3
			C87.2,13.2,87.2,13.2,87.2,13.3v-0.2c0,0,0,0,0.1,0c0.2,0.1,0.3,0.1,0.4,0.2C87.5,13.6,87.4,13.8,87.2,13.3z M90.8,13.4L90.8,13.4
			c-0.4,0.4-0.9,0.6-1.5,0.3l0,0c0-0.1,0-0.2,0-0.3l0,0c0.3-0.2,0.3-0.4,0.4-0.8v-0.1c0,0,0,0,0.1,0.1
			C90.2,12.8,90.3,13.1,90.8,13.4C90.8,13.3,90.8,13.3,90.8,13.4L90.8,13.4z"/>
		<path class="st7" d="M87.1,16.6c0.3,0.3,0.4,0.6,0.6,0.9c0,0,0-0.1,0.1-0.1c0,0.1,0,0.1-0.1,0.2c0,0.4,0,0.9,0,1.6
			c0.4-0.8,0.5-1.4,0.2-2C87.8,16.9,87.6,16.6,87.1,16.6z"/>
		<path class="st7" d="M65.7,1.6c0.3,0,0.6,0,0.9,0c-0.2-0.1-0.4-0.1-0.6-0.1c-1.8,0-3.5,0-5.3,0c-0.1,0-0.1-0.1-0.2-0.1
			C60.3,1.3,60.2,1,60,0.9c-0.1-0.3,0.2-0.6-0.1-0.9c0,0-0.3,0-0.4,0.1c-0.3,0.3-0.1,0.6,0,0.9c0.1,0.1,0.1,0.1,0.2,0.2
			c0.1,0.1,0.1,0.3,0.1,0.3c-0.1,0.1-0.1,0.1-0.1,0.1l0,0c-0.2,0.1-0.3,0.1-0.5,0.1c-0.3,0-0.6,0-0.8,0.1h0.1c0,0-0.1,0-0.1,0.1
			c-0.1-0.1-0.1,0-0.2,0c-0.3,0-0.7,0-0.9,0.2C57.3,2,57.3,2,57.2,2c-0.3-0.1-0.7,0-0.9,0.2c-0.3-0.1-0.4,0-0.3,0.3
			c0.4,0.3,0.9,0.2,1.3,0c0.5-0.1,0.7,0.3,0.9,0.6c0,0.4-0.2,0.6-0.5,0.7c-0.5,0.2-0.8,0.5-0.7,1c0.1,0.6,0.4,0.9,0.9,0.9
			c0,0,0,0.1,0.1,0.1c0.6,0,0.9-0.2,1-0.8L59,4.9c-0.1-0.6,0.3-0.8,0.8-0.9c0.2,0,0.3,0.1,0.6,0.1c0-0.1,0-0.1,0.1-0.2
			c0,0.1,0,0.1,0,0.2c-0.1,0-0.1,0.1,0,0.1c0,0.1,0,0.3,0.1,0.3c0,0.2,0,0.4,0.1,0.5v0.1c0,0,0,0,0.1-0.1c0,0,0,0,0,0.1
			c0,0.3,0,0.5,0,0.8l-0.1,0.1c0.5,0.2,0.6,0.2,0.4-0.6c0-0.1,0-0.1,0.1-0.1c0-0.1,0-0.3,0-0.3c0,0-0.1,0-0.2,0c0-0.1,0-0.1,0-0.2
			s0-0.2,0-0.3c0,0.1,0.1,0.2,0.1,0.3c0-0.4,0.1-0.9-0.1-1.3c0,0.1,0,0.2,0,0.3c0-0.1,0-0.2-0.1-0.3c0-0.3,0-0.8,0-1.1l0,0L61,2.4
			C61.1,2,61.5,2.1,61.7,2c0,0,0,0.1,0.1,0.1c0.6,0,1.2-0.2,1.6,0.5c0.1,0.3-0.2,0.4,0,0.7c-0.3,0-0.5,0.2-0.8,0.2
			c-0.8,0-0.9,0.3-0.7,0.9c0.1,0.2-0.1,0.4,0.2,0.6h0.1c0.1,0.3,0.2,0.4,0.3,0.5c0.3,0.4,0.6,0.5,1,0.5C63.8,6.1,64,6.2,64,6.1
			c0.2-0.2,0.2-0.3,0-0.4c-0.3-0.3-0.9-0.3-1.1-0.7c0-0.3-0.1-0.4-0.1-0.7c-0.1,0.1-0.2,0.2-0.2,0.3c0-0.1,0-0.2,0.1-0.3
			c0.4-0.5,0.9,0,1.4-0.2c0.1-0.1,0.1-0.1,0.2-0.1c0,0,0,0.1-0.1,0.1c0.3,0,0.7,0,1,0c0,0,0,0,0.1,0h0.1c0,0.1,0.1,0.1,0.1,0.2
			c-0.1,0-0.2-0.1-0.2-0.2c-0.1,0-0.1,0-0.2,0.1c0.3,0.7,0.4,1.5-0.1,2.1c-0.1,0.2-0.3,0.3-0.2,0.4C65,7,65.2,7.1,65.3,7
			c0.4-0.2,0.7,0,0.5,0.5c-0.8,0.6-1.2,0-1.7-0.4c-0.2-0.2-0.3-0.3-0.4-0.2c-0.2,0.2-0.2,0.3,0,0.5c0.5,0.8,1.4,1,2.3,0.7
			c0.4-0.3,0.5-0.9,0.3-1.1c-0.6-0.8-0.3-1.6-0.3-2.5l-0.1-0.1l0,0L66,4.4c0.1,0,0.1,0.1,0.1,0.1c0.3-0.7,0-1.3,0.3-2l0,0
			c0.5-0.2,0.6-0.4,0.2-0.8C66.3,1.7,65.9,1.6,65.7,1.6z M57.7,5c-0.1-0.3,0-0.4,0.3-0.3C57.9,4.9,57.8,4.9,57.7,5z M59.1,2L59.1,2
			L59.1,2L59.1,2z M60.3,2.9c-0.3,0.2-0.5,0.3-0.6,0.5c-0.2,0-0.4,0.1-0.6,0.1s-0.3-0.1-0.3-0.2c-0.1-0.2-0.2-0.4-0.2-0.7h0.1
			c0.1-0.1,0.2-0.2,0.2-0.3l0,0c0.1,0,0.2,0,0.3,0c0.1,0,0.1,0,0.2-0.1c0.2,0.1,0.3,0,0.3-0.1C59.8,2.5,60.1,2.6,60.3,2.9
			C60.4,2.9,60.3,2.9,60.3,2.9z M61.7,1.7L61.7,1.7L61.7,1.7L61.7,1.7z M65.4,4.1L65.4,4.1C65.4,4,65.4,4,65.4,4.1
			C65.4,4,65.4,4.1,65.4,4.1z M65.7,3.6L65.7,3.6c-0.1,0-0.2,0-0.2,0c0,0.1-0.1,0.1-0.1,0.2c0-0.1,0-0.1,0-0.2
			c-0.2,0.2-0.4,0.1-0.7,0.2c-0.1,0-0.2,0-0.3,0c-0.1-0.4-0.4-0.9-0.1-1.3c0.3-0.2,0.6-0.2,0.9,0c0.1,0.1,0.2,0.1,0.3,0.2
			c-0.3,0.3-0.3,0.5-0.2,0.9c0,0.1,0.1,0.1,0.2,0.1S65.7,3.5,65.7,3.6C65.7,3.5,65.7,3.6,65.7,3.6C65.7,3.6,65.7,3.6,65.7,3.6
			L65.7,3.6z"/>
		<path class="st7" d="M55.1,3.9C55.1,3.9,55.1,4,55.1,3.9c-0.4,0-0.8-0.1-1.2,0.1c-0.3,0.2-0.4,0.1-0.5-0.2
			c-0.1-0.3,0.1-0.4,0.3-0.5c0.4-0.2,0.9-0.3,1.2-0.5V2.7c0.3,0.1,0.4-0.1,0.6-0.3c0.1,0,0-0.3-0.2-0.3C55.1,2,54.9,2,54.7,2.3v0.1
			c-1.5,0.3-2.8,0.9-4.3,1.3c-0.2,0-0.5,0-0.4,0.3c0.1,0.3,0.3,0.2,0.6,0.1c0.5-0.2,1-0.3,1.5-0.4c0.3-0.1,0.4,0,0.5,0.3
			c0.1,0.3-0.2,0.4-0.4,0.4c-0.3,0.1-0.7,0.3-0.9,0.5c-0.1,0.1-0.1,0.1-0.2,0.2c-0.2,0.4-0.2,0.9,0,1.3c0.4,0.7,1,0.9,1.8,0.5
			c0.3,0,0.6-0.1,0.7,0.2c0.1,0,0.1,0,0.1,0l0,0c0.1,0.3,0.1,0.5,0.5,0.3c0.2-0.1,0.3-0.3,0.2-0.5c-0.1-0.2-0.2-0.3-0.3-0.5
			c0,0.1,0,0.1-0.1,0.2c0-0.1,0-0.1,0-0.2C53.9,6.2,54,6,53.9,5.8c0-0.3-0.1-0.6-0.2-0.9c0,0,0-0.1,0.1-0.1c0.2-0.4,0.5-0.5,0.9-0.5
			c0.3,0.3,0.6,0.4,0.5,0.9c0,0.1,0,0.1,0,0.2c0,0,0,0,0,0.1C55,5.6,54.7,5.9,55,6.1c0.3,0.3,0.4-0.1,0.6-0.3
			c0.1-0.2,0.2-0.3,0.2-0.4C56.1,4.6,55.7,4.3,55.1,3.9z M52.5,6.7L52.5,6.7L52.5,6.7L52.5,6.7z M52.4,6.4c-0.1,0-0.3,0-0.3-0.1
			L52,6.2c-0.3-0.3-0.3-0.7-0.3-1h0.1c0.5-0.2,0.9,0.2,1.4,0.3v0.1C52.9,5.8,52.6,6.1,52.4,6.4z"/>
	</g>
	<path class="st8" d="M93.9,75.8c-2.5,0-5.8,0-7.1,0c-2.1,0-2.3-1-2.3-1s-26.7,0-27.8,0s-1.3-0.5-1.3-0.5S44.2,51.3,44,50.7
		s-0.3-0.6-0.3-0.6s-0.3-0.1-0.5,0.3c-0.2,0.4-0.4,0.5-0.4,0.5S38.1,51,37.6,51c-0.6,0-0.7-0.3-0.7-0.5s-0.1-0.4-0.3-0.7
		c-0.3-0.3-0.3-0.7-0.3-0.7s0-7.3,0-8.4c0-1,1-1,1-1s10.6,0,12.3,0c1.7,0,2,1.1,2,1.1l10.5,21.8c0,0,0-20,0-21.6s1.1-1.5,1.1-1.5
		s17.8,0,19.7,0c1.9,0,1.8,1.5,1.8,1.5h17.6c-0.9-2.8-2-5.5-3.3-8.1l-3.5,2.3c-0.4,0.3-0.9,0.2-1.2-0.3l-2.4-3.6
		c-0.3-0.4-0.2-0.9,0.3-1.2l3.5-2.3c-1.9-2.5-4.1-4.8-6.6-6.7l-2.4,3.6c-0.3,0.4-0.8,0.5-1.2,0.3l-3.6-2.5c-0.4-0.3-0.5-0.8-0.3-1.2
		l2.4-3.5c-2.7-1.5-5.5-2.8-8.6-3.7l-0.9,4.1c-0.1,0.4-0.5,0.8-1,0.7l-4.2-0.9c-0.4-0.1-0.8-0.5-0.7-1l0.9-4.1
		c-1.7-0.3-3.4-0.3-5.1-0.3c-1.5,0-2.9,0.1-4.3,0.3l0.8,4.1c0.1,0.4-0.3,0.9-0.7,1l-4.3,0.8c-0.4,0.1-0.9-0.3-1-0.7L54.1,14
		c-3.2,0.9-6.1,2-8.9,3.6l2.3,3.5c0.3,0.4,0.2,0.9-0.3,1.2l-3.6,2.4c-0.4,0.3-0.9,0.2-1.2-0.3l-2.3-3.5c-2.5,2-4.7,4.1-6.7,6.6
		l3.4,2.3c0.4,0.3,0.5,0.8,0.3,1.2l-2.4,3.6c-0.3,0.4-0.8,0.5-1.2,0.3l-3.4-2.3c-1.5,2.7-2.7,5.5-3.7,8.6l4,0.9
		c0.4,0.1,0.8,0.5,0.7,1l-0.9,4.3c-0.1,0.4-0.5,0.8-1,0.7l-4-0.9c-0.2,1.6-0.3,3.2-0.3,4.9c0,1.5,0.1,3,0.3,4.4l4-0.8
		c0.4-0.1,0.9,0.3,1,0.7l0.8,4.3c0.1,0.4-0.3,0.9-0.7,1l-3.9,0.6c0.9,3.1,2,6,3.5,8.7l3.4-2.2c0.4-0.3,0.9-0.2,1.2,0.3l2.4,3.6
		c0.3,0.4,0.2,0.9-0.3,1.2L33.3,76c1.9,2.5,4.1,4.7,6.6,6.7l2.3-3.4c0.3-0.4,0.8-0.5,1.2-0.3l3.6,2.4c0.4,0.3,0.5,0.8,0.3,1.2
		L44.9,86c2.6,1.5,5.5,2.8,8.6,3.7l0.9-4c0.1-0.4,0.5-0.8,1-0.7l4.3,0.9c0.4,0.1,0.8,0.5,0.7,1l-0.9,4c1.6,0.3,3.3,0.3,5,0.3
		c1.5,0,2.9-0.1,4.3-0.3l-0.8-4.1c-0.1-0.4,0.3-0.9,0.7-1l4.3-0.8c0.4-0.1,0.9,0.3,1,0.7l0.8,4.1c3.1-0.9,6-2,8.7-3.5l-2.3-3.5
		c-0.3-0.4-0.2-0.9,0.3-1.2l3.6-2.4c0.4-0.3,0.9-0.2,1.2,0.3l2.3,3.5c2.5-1.9,4.7-4.1,6.7-6.6L93.9,75.8z M47.8,31.1l15.4-10.7
		c0,0,0.9-0.9,1.6-0.3c0.7,0.5,21.9,15.5,21.9,15.5s0.8,1.4-0.6,1.4c-1.4,0-26.6,0-26.6,0s-0.9-0.1-0.9,0.9c0,0.9,0,9.2,0,9.2
		s-0.3,1.6-0.9,0.4s-4.7-10.7-4.7-10.7s-0.2-1.3-2.3-1.3c-2.1,0-6.4,0-6.4,0s-0.9,0.3-0.9-0.9C43.5,33.7,47.8,31.1,47.8,31.1z"/>
	
		<linearGradient id="SVGID_1_" gradientUnits="userSpaceOnUse" x1="89.6569" y1="60.8601" x2="75.4085" y2="77.8407" gradientTransform="matrix(1 0 0 -1 0 128)">
		<stop  offset="0" style="stop-color:#FEF100"/>
		<stop  offset="0.3659" style="stop-color:#FEF100"/>
		<stop  offset="0.4553" style="stop-color:#F8991C"/>
		<stop  offset="0.5615" style="stop-color:#F8A120"/>
		<stop  offset="0.662" style="stop-color:#F26F21"/>
	</linearGradient>
	<path class="st9" d="M82.3,44.4c0,0,9,14.3,3.4,24c-3,5.2-3,4.5-3,4.5s-5.6-6.1-4.8-12.5C78.8,54,82.4,52.5,82.3,44.4z"/>
	<g>
		<path class="st10" d="M25.7,26.5c-1.3-0.4-3.7,0.5-4.8,1.7c0.5-0.9,1.1-1.9,1.7-2.8c-0.4,0.7-0.9,1.4-1.4,2
			c0.7-1.5,0.6-3.8,0.1-4.8c-0.7-1.2-0.3-2.9-0.3-2.9c-2,1.5-1.1,4.5-0.5,5.9c0.4,1.2,0.4,2.1,0.3,2.3c-1.1,1.8-2.1,3.7-3.2,5.5
			c0.5-1.9,0-4.5-0.9-5.4c-1-1-0.9-3.4-0.9-3.4c-1.1,0.9-1.7,4.3-0.2,6.1c1.3,1.5,1.5,3.1,1.6,3.5c-0.8,1.5-1.4,3.1-2,4.6
			c-0.3,0.6-0.4,1.1-0.6,1.7c0.1-1.2-0.1-3.1-1.4-4.2c-2-1.7-1.5-5.2-1.5-5.2c-2.7,2.7-0.4,6.5,0.8,7.7c0.9,0.9,1.5,2,1.9,2.6
			c-0.9,2.6-1.5,5.1-1.9,7.8c-0.3-2.4-1.7-4.4-3.2-5.4c-2-1.3-1.5-5-1.5-5c-3.8,3.9,0.9,8.4,2,9.5c0.9,0.9,2.1,2.2,2.6,2.6
			c-0.1,1-0.2,2-0.3,3c-0.1,1.7-0.1,3.4,0.1,5.1c-1.2-2.4-2.9-3.2-4.8-4.1c-2.4-1.3-3.2-5.6-3.2-5.6c-2,5.2,1.6,10.2,4.8,10.4
			c1.8,0.1,2.8,0.6,3.4,1.1c0.3,2.8,0.9,5.6,1.9,8.4c0,0.1,0.1,0.2,0.1,0.3c-2.1-3.2-3.7-4.5-6.4-4.5c-3,0-4.4-3.2-4.4-3.2
			c-0.4,4.2,2.9,6.6,6.1,6.8c2.4,0.2,4.1,1.2,4.9,1.7c0.8,2,1.6,4.1,2.7,6.1c1.3,2.3,2.6,4.4,4.4,6.5l0,0c0.3,0.3,0.9,0.3,1.2,0.1
			c0.3-0.3,0.3-0.9,0.1-1.2l0,0c-1.6-1.8-3.1-3.9-4.4-6.1c-0.9-1.6-1.8-3.3-2.5-5.1c0.2-0.3,0.8-1.7,2.9-3.1
			c6.4-4.2,3.3-8.9,3.3-8.9c-0.8,4.3-5.5,4.3-5.8,7.3c-0.3,3-0.9,3.5-0.9,3.5l0.1,0.3c-0.1-0.3-0.3-0.6-0.3-0.9c-0.7-2-1.3-4-1.6-6
			c0.2-0.6,0.5-1.5,1.5-2.3c1.8-1.7,7.9-4.5,5.9-11.2c0,0-1,3.3-3.5,4.3c-2.5,0.9-3.4,5.5-3.4,5.5s-0.2,1.4-0.9,1.6
			c-0.3-2.2-0.4-4.4-0.4-6.7c0-0.6,0-1.1,0.1-1.7v0.8c0,0,0.5-1,2.1-1.9c1.6-0.9,8.4-2.9,6.7-9.4c0,0-0.9,4-3.8,4.9
			c-2.5,0.8-4.4,3.6-4.9,4.3c0.3-2.6,0.7-5.4,1.4-7.9c0.3-0.3,1.1-0.9,2.7-1.5c2-0.5,7.2-2.1,5.6-6.1c0,0-0.5,2.6-3.2,3.2
			c-2.6,0.5-4.3,2.3-5.1,4c0.3-1.3,0.8-2.5,1.2-3.7c0.5-1.5,1-2.8,1.7-4.2c0.3-0.2,1-0.4,2.2-0.6c1.5-0.3,5.5-0.6,6.4-4.1
			c0,0-1.2,1.3-3.5,1.2c-2,0-4.2,2.2-5,3.2c0.9-2.1,2-4.2,3.2-6.2c0.6,0.1,5.9,1.2,7.4-2.2C28.4,26.1,27.1,27,25.7,26.5z"/>
		<path class="st10" d="M26,18.9c-1.8,2.1-2,4.9-2,4.9s4.1-1.5,4.9-3.4c0.9-2,2-3.7,2-3.7C29.7,17.3,27.8,16.7,26,18.9z"/>
	</g>
	<g>
		<path class="st10" d="M102.4,26.5c1.3-0.4,3.7,0.5,4.8,1.7c-0.5-0.9-1.1-1.9-1.7-2.8c0.4,0.7,0.9,1.4,1.4,2
			c-0.7-1.5-0.6-3.8-0.1-4.8c0.7-1.2,0.3-2.9,0.3-2.9c2,1.5,1.1,4.5,0.5,5.9c-0.4,1.2-0.4,2.1-0.3,2.3c1.1,1.8,2.1,3.7,3.2,5.5
			c-0.5-1.9,0-4.5,0.9-5.4c1-1,0.9-3.4,0.9-3.4c1.1,0.9,1.7,4.3,0.2,6.1c-1.3,1.5-1.5,3.1-1.6,3.5c0.8,1.5,1.4,3.1,2,4.6
			c0.3,0.6,0.4,1.1,0.6,1.7c-0.1-1.2,0.1-3.1,1.4-4.2c2-1.7,1.5-5.2,1.5-5.2c2.7,2.7,0.4,6.5-0.8,7.7c-0.9,0.9-1.5,2-1.9,2.6
			c0.9,2.6,1.5,5.1,1.9,7.8c0.3-2.4,1.7-4.4,3.2-5.4c2-1.3,1.5-5,1.5-5c3.8,3.9-0.9,8.4-2,9.5c-0.9,0.9-2.1,2.2-2.6,2.6
			c0.1,1,0.2,2,0.3,3c0.1,1.7,0.1,3.4-0.1,5.1c1.1-2.4,2.9-3.1,4.7-4.1c2.4-1.3,3.2-5.6,3.2-5.6c2,5.2-1.6,10.2-4.8,10.4
			c-1.8,0.1-2.8,0.6-3.4,1.1c-0.3,2.8-0.9,5.6-1.9,8.4c0,0.1-0.1,0.2-0.1,0.3c2.1-3.2,3.7-4.5,6.4-4.5c3,0,4.4-3.2,4.4-3.2
			c0.4,4.2-2.9,6.6-6.1,6.8c-2.4,0.2-4.1,1.2-4.9,1.7c-0.8,2-1.6,4.1-2.7,6.1c-1.3,2.3-2.6,4.4-4.4,6.5l0,0
			c-0.3,0.3-0.9,0.3-1.2,0.1c-0.3-0.3-0.3-0.9-0.1-1.2l0,0c1.6-1.8,3.1-3.9,4.4-6.1c0.9-1.6,1.8-3.3,2.5-5.1
			c-0.2-0.3-0.8-1.7-2.9-3.1c-6.4-4.2-3.3-8.9-3.3-8.9c0.8,4.3,5.5,4.3,5.8,7.3c0.3,3,0.9,3.5,0.9,3.5l-0.1,0.3
			c0.1-0.3,0.3-0.6,0.3-0.9c0.7-2,1.3-4,1.6-6c-0.2-0.6-0.5-1.5-1.5-2.3c-1.8-1.7-7.9-4.5-5.9-11.2c0,0,1,3.3,3.5,4.3
			c2.5,0.9,3.4,5.5,3.4,5.5s0.2,1.4,0.9,1.6c0.3-2.2,0.4-4.4,0.4-6.7c0-0.6,0-1.1-0.1-1.7v0.8c0,0-0.5-1-2.1-1.9
			c-1.6-0.9-8.4-2.9-6.7-9.4c0,0,0.9,4,3.8,4.9c2.5,0.8,4.4,3.6,4.9,4.3c-0.3-2.6-0.7-5.4-1.4-7.9c-0.3-0.3-1.1-0.9-2.7-1.5
			c-2-0.5-7.2-2.1-5.6-6.1c0,0,0.5,2.6,3.2,3.2c2.6,0.5,4.3,2.3,5.1,4c-0.3-1.3-0.8-2.5-1.2-3.7c-0.5-1.5-1-2.8-1.7-4.2
			c-0.3-0.2-1-0.4-2.2-0.6c-1.5-0.3-5.5-0.6-6.4-4.1c0,0,1.2,1.3,3.5,1.2c2,0,4.2,2.2,5,3.2c-0.9-2.1-2-4.2-3.2-6.2
			c-0.6,0.1-5.9,1.2-7.4-2.2C99.8,26.1,101.1,27,102.4,26.5z"/>
		<path class="st10" d="M102.1,18.9c1.8,2.1,2,4.9,2,4.9s-4.1-1.5-4.9-3.4s-2-3.7-2-3.7C98.4,17.3,100.4,16.7,102.1,18.9z"/>
	</g>
	<g>
		<path class="st10" d="M63.2,117.1c-6,0-11.3-0.9-15.8-2c-14-3.6-22.6-10.8-22.7-10.8c-0.3-0.2-0.3-0.5-0.1-0.8
			c0.2-0.3,0.5-0.3,0.8-0.1c0.1,0.1,8.6,7.1,22.4,10.6c12.7,3.2,32.6,4,55.4-10.7c0.3-0.2,0.6-0.1,0.8,0.2c0.2,0.3,0.1,0.6-0.2,0.8
			C88.5,114.1,74.6,117.1,63.2,117.1z"/>
	</g>
	<g>
		<path class="st10" d="M30.5,96.3c-0.1,0-0.2,0-0.2,0c-3.5-1.5-10.8-7.5-11-7.8c-0.3-0.2-0.3-0.5-0.1-0.8c0.2-0.3,0.5-0.3,0.8-0.1
			c0.1,0.1,7.4,6.2,10.8,7.6c0.3,0.1,0.4,0.4,0.3,0.7C30.9,96.2,30.8,96.3,30.5,96.3z"/>
	</g>
	<g>
		<path class="st10" d="M96.7,96.3c0.1,0,0.2,0,0.2,0c3.5-1.5,10.8-7.5,11-7.8c0.3-0.2,0.3-0.5,0.1-0.8c-0.2-0.3-0.5-0.3-0.8-0.1
			c-0.1,0.1-7.4,6.2-10.8,7.6c-0.3,0.1-0.4,0.4-0.3,0.7C96.4,96.2,96.6,96.3,96.7,96.3z"/>
	</g>
</g>
</svg>
